<svg width="32" height="32" viewBox="0 0 32 32" fill="none" xmlns="http://www.w3.org/2000/svg">
<g id="vuesax/linear/bezier">
<g id="bezier">
<g id="Group">
<path id="Vector" d="M3.99998 12.0003C5.47274 12.0003 6.66665 10.8064 6.66665 9.33366C6.66665 7.8609 5.47274 6.66699 3.99998 6.66699C2.52722 6.66699 1.33331 7.8609 1.33331 9.33366C1.33331 10.8064 2.52722 12.0003 3.99998 12.0003Z" stroke="#B4CD93" stroke-width="1.5" stroke-miterlimit="10" stroke-linecap="round" stroke-linejoin="round"/>
<path id="Vector_2" d="M28 12.0003C29.4727 12.0003 30.6666 10.8064 30.6666 9.33366C30.6666 7.8609 29.4727 6.66699 28 6.66699C26.5272 6.66699 25.3333 7.8609 25.3333 9.33366C25.3333 10.8064 26.5272 12.0003 28 12.0003Z" stroke="#B4CD93" stroke-width="1.5" stroke-miterlimit="10" stroke-linecap="round" stroke-linejoin="round"/>
<path id="Vector_3" d="M25.3333 9.3335H20" stroke="#B4CD93" stroke-width="1.5" stroke-miterlimit="10" stroke-linecap="round" stroke-linejoin="round"/>
<path id="Vector_4" d="M12 9.3335H6.66663" stroke="#B4CD93" stroke-width="1.5" stroke-miterlimit="10" stroke-linecap="round" stroke-linejoin="round"/>
<path id="Vector_5" d="M9.99998 22V24.6667C9.99998 25.48 9.50665 26.1866 8.81331 26.48C8.55998 26.6 8.29331 26.6667 7.99998 26.6667H5.33331C4.22665 26.6667 3.33331 25.7733 3.33331 24.6667V22C3.33331 20.8933 4.22665 20 5.33331 20H7.99998C9.10665 20 9.99998 20.8933 9.99998 22Z" stroke="#B4CD93" stroke-width="1.5" stroke-miterlimit="10" stroke-linecap="round" stroke-linejoin="round"/>
<path id="Vector_6" d="M28.6667 22V24.6667C28.6667 25.7733 27.7733 26.6667 26.6667 26.6667H24C23.7067 26.6667 23.44 26.6 23.1867 26.48C22.4933 26.1866 22 25.48 22 24.6667V22C22 20.8933 22.8933 20 24 20H26.6667C27.7733 20 28.6667 20.8933 28.6667 22Z" stroke="#B4CD93" stroke-width="1.5" stroke-miterlimit="10" stroke-linecap="round" stroke-linejoin="round"/>
<path id="Vector_7" d="M20 7.3335V11.3335C20 12.4268 19.0933 13.3335 18 13.3335H14C12.9067 13.3335 12 12.4268 12 11.3335V7.3335C12 6.24016 12.9067 5.3335 14 5.3335H18C19.0933 5.3335 20 6.24016 20 7.3335Z" stroke="#B4CD93" stroke-width="1.5" stroke-miterlimit="10" stroke-linecap="round" stroke-linejoin="round"/>
<path id="Vector_8" d="M20 10.3066C23.16 11.9066 25.3333 15.3467 25.3333 19.3333C25.3333 19.56 25.32 19.7733 25.2933 20" stroke="#B4CD93" stroke-width="1.5" stroke-miterlimit="10" stroke-linecap="round" stroke-linejoin="round"/>
<path id="Vector_9" d="M6.70663 20C6.67996 19.7733 6.66663 19.56 6.66663 19.3333C6.66663 15.3467 8.83996 11.9066 12 10.3066" stroke="#B4CD93" stroke-width="1.5" stroke-miterlimit="10" stroke-linecap="round" stroke-linejoin="round"/>
</g>
</g>
</g>
</svg>
